<svg width="43" height="44" viewBox="0 0 43 44" fill="none" xmlns="http://www.w3.org/2000/svg">
<path d="M20.4524 0L29.232 1.59954L25.9397 17.295L41.8028 14.5958L43 23.4932L27.1369 25.2927L34.5197 39.4885L26.5383 43.3874L19.8538 28.8916L8.67982 40.1883L2.4942 33.7902L14.2668 22.9933L0 15.8954L4.19026 7.99768L17.9582 15.8954L20.4524 0Z" fill="#B4D21C"/>
<path fill-rule="evenodd" clip-rule="evenodd" d="M21.6615 10.402C22.3157 10.5546 22.969 10.8674 23.4113 11.4549C24.057 12.3126 24.321 13.2823 24.0818 14.3347C23.8589 15.3149 23.2258 16.244 22.3705 17.1528C20.6623 18.9678 17.6581 21.1172 13.4967 23.8808L12.307 22.1031C16.5102 19.3118 19.2968 17.295 20.8058 15.6916C21.559 14.8912 21.891 14.298 21.99 13.8628C22.0725 13.4997 22.0148 13.1609 21.6954 12.7367C21.6552 12.6832 21.5272 12.565 21.1723 12.4822C20.8202 12.4 20.3288 12.3745 19.7054 12.4376C18.4613 12.5634 16.8718 13.0229 15.2124 13.7941C11.8632 15.3505 8.54607 18.0222 7.24887 21.2523C6.61043 22.842 6.65263 24.4705 7.313 25.6496C7.94166 26.772 9.24658 27.6923 11.6151 27.6923C13.4042 27.6923 14.9903 27.1364 16.7767 26.1449C17.9894 25.4719 19.2266 24.6404 20.6581 23.6785C21.3932 23.1846 22.1795 22.6562 23.0399 22.0972L24.2115 23.8868C23.4286 24.3954 22.6799 24.8983 21.9597 25.3819C20.4752 26.3789 19.1121 27.2945 17.8206 28.0113C15.8537 29.1029 13.901 29.8288 11.6151 29.8288C8.62183 29.8288 6.51652 28.6126 5.44003 26.6905C4.39524 24.8251 4.43737 22.501 5.25755 20.4587C6.8393 16.5201 10.7072 13.5301 14.3057 11.8579C16.1202 11.0147 17.9454 10.4681 19.4887 10.312C20.259 10.2341 21.0045 10.2486 21.6615 10.402Z" fill="#4A860B"/>
</svg>